<svg xmlns="http://www.w3.org/2000/svg" width="25" height="25" fill="none" viewBox="0 0 25 25"><g clip-path="url(#clip0_1470_707)"><path fill="#036DB4" d="M0 0h25v25H0z"/><g fill-rule="evenodd" clip-path="url(#clip1_1470_707)" clip-rule="evenodd"><path fill="#F39324" d="M23.678 7.079H1.292c-.704 0-1.275.534-1.275 1.197v8.84c0 .662.571 1.206 1.275 1.206h22.386c.704 0 1.28-.535 1.28-1.184V8.304c.004-.686-.563-1.225-1.28-1.225Zm-6.421 10.74H1.292c-.402 0-.731-.315-.731-.7V8.277c0-.38.329-.685.731-.685h15.965v10.228Zm7.161-1.17-1.22 1.165h-1.686l2.906-2.75v1.585Zm0-2.463h-.735l-3.849 3.633h-1.682l3.849-3.633h-1.678l-2.518 2.38v-1.558l.86-.818h-.86v-6.6h5.878c.41 0 .735.311.735.714v5.882Z"/><path fill="#fff" d="M3.377 16.773c1.143 0 1.595-.576 1.595-1.536v-.731h-1.06v.941c0 .27-.133.416-.53.416-.384 0-.53-.146-.53-.416V9.954c0-.27.146-.416.53-.416.397 0 .53.146.53.416v.946h1.06v-.732c0-.96-.452-1.535-1.595-1.535-1.129 0-1.581.576-1.581 1.535v5.064c-.005.965.448 1.54 1.581 1.54ZM6.504 15.1H7.61l.206 1.558H8.85L7.67 8.747H6.446l-1.18 7.911H6.3l.205-1.558Zm.553-4.534.444 3.615H6.61l.447-3.615ZM10.328 13.217h.366c.398 0 .663.164.663.626v1.412c0 .69.023 1.056.324 1.403h.965a2.05 2.05 0 0 1-.224-.964V13.91c0-.52-.092-.859-.718-1.028.507-.1.63-.453.63-.891V9.743c0-.599-.433-.992-1.082-.992h-1.98v7.912h1.056v-3.446Zm0-3.552h.704c.178 0 .242.041.242.21v2.226c0 .17-.059.224-.242.224h-.704v-2.66ZM14.479 16.772c1.01 0 1.517-.59 1.517-1.38v-1.106c0-.461-.132-.813-.434-1.152l-1.239-1.462c-.205-.238-.301-.439-.301-.782v-.937c0-.27.146-.416.47-.416.325 0 .471.147.471.416v1.056h1.06v-.996c0-.79-.516-1.38-1.526-1.38s-1.54.59-1.54 1.38v1.106c0 .461.132.813.425 1.152l1.266 1.457c.206.238.315.44.315.782v.937c0 .27-.164.416-.489.416-.324 0-.484-.146-.484-.416v-1.051h-1.033v.992c.004.795.512 1.384 1.522 1.384ZM20.733 10.959c.242-.47.379-.804.379-1.184 0-.736-.338-1.028-.864-1.028-.42 0-.864.27-.864 1.051h.558c0-.375.096-.576.315-.576.224 0 .302.192.302.576 0 .265-.037.498-.302 1.006l-.9 1.75v.475h1.778v-.489h-1.207l.805-1.581Z"/><path fill="#fff" d="M22.586 8.802h-.525l-1.08 2.742v.461h1.061v1.024h.544v-1.024h.288v-.484h-.288V8.8Zm-.548 2.719h-.549l.549-1.408v1.408Z"/></g></g><defs><clipPath id="clip0_1470_707"><rect width="25" height="25" fill="#fff" rx="4"/></clipPath><clipPath id="clip1_1470_707"><path fill="#fff" d="M0 7.102h25v11.243H0z"/></clipPath></defs></svg>