<svg xmlns="http://www.w3.org/2000/svg" width="12" height="12" fill="none" viewBox="0 0 12 12"><path fill="#24272C" fill-rule="evenodd" d="M6 1.5c-.925 0-1.814.376-2.47 1.048A3.639 3.639 0 0 0 2.5 5.09c0 1.394.888 2.75 1.867 3.808A13.145 13.145 0 0 0 6 10.38a13.145 13.145 0 0 0 1.633-1.482C8.613 7.843 9.5 6.486 9.5 5.092c0-.956-.371-1.87-1.03-2.543A3.455 3.455 0 0 0 6 1.5ZM6 11l-.282.413-.001-.001-.003-.002-.01-.007a4.32 4.32 0 0 1-.173-.124 14.13 14.13 0 0 1-1.898-1.7C2.613 8.475 1.5 6.878 1.5 5.09c0-1.214.471-2.38 1.314-3.242A4.455 4.455 0 0 1 6 .5c1.197 0 2.343.486 3.186 1.349A4.638 4.638 0 0 1 10.5 5.09c0 1.788-1.112 3.385-2.133 4.487a14.13 14.13 0 0 1-2.07 1.825l-.01.007-.004.002S6.281 11.414 6 11Zm0 0 .282.413a.5.5 0 0 1-.564 0L6 11Z" clip-rule="evenodd"/><path fill="#24272C" fill-rule="evenodd" d="M6 4a1 1 0 1 0 0 2 1 1 0 0 0 0-2ZM4 5a2 2 0 1 1 4 0 2 2 0 0 1-4 0Z" clip-rule="evenodd"/></svg>